<svg xmlns="http://www.w3.org/2000/svg" xmlns:xlink="http://www.w3.org/1999/xlink" width="500" zoomAndPan="magnify" viewBox="0 0 375 374.999991" height="500" preserveAspectRatio="xMidYMid meet" version="1.0"><defs><g/><clipPath id="ae115eaea6"><path d="M 153 221 L 162 221 L 162 267.886719 L 153 267.886719 Z M 153 221 " clip-rule="nonzero"/></clipPath><clipPath id="f4842ae6ae"><path d="M 212 221 L 222 221 L 222 267.886719 L 212 267.886719 Z M 212 221 " clip-rule="nonzero"/></clipPath><clipPath id="ad48a0e44a"><path d="M 114 194.386719 L 126 194.386719 L 126 234 L 114 234 Z M 114 194.386719 " clip-rule="nonzero"/></clipPath><clipPath id="436993e1e7"><path d="M 136 240 L 144 240 L 144 267.886719 L 136 267.886719 Z M 136 240 " clip-rule="nonzero"/></clipPath><clipPath id="94e1bae5e3"><path d="M 119 240 L 127 240 L 127 267.886719 L 119 267.886719 Z M 119 240 " clip-rule="nonzero"/></clipPath><clipPath id="a6c4a2f4ff"><path d="M 249 194.386719 L 261 194.386719 L 261 234 L 249 234 Z M 249 194.386719 " clip-rule="nonzero"/></clipPath><clipPath id="1ae1a8f320"><path d="M 231 240 L 239 240 L 239 267.886719 L 231 267.886719 Z M 231 240 " clip-rule="nonzero"/></clipPath><clipPath id="9422238fdf"><path d="M 248 240 L 256 240 L 256 267.886719 L 248 267.886719 Z M 248 240 " clip-rule="nonzero"/></clipPath><clipPath id="db348dc394"><path d="M 178.347656 139.253906 L 198.628906 139.253906 L 198.628906 180.503906 L 178.347656 180.503906 Z M 178.347656 139.253906 " clip-rule="nonzero"/></clipPath><clipPath id="4778db6218"><path d="M 176.128906 154 L 190 154 L 190 171 L 176.128906 171 Z M 176.128906 154 " clip-rule="nonzero"/></clipPath><clipPath id="34a9a9f595"><path d="M 185.671875 147.089844 L 198.628906 147.089844 L 198.628906 162.761719 L 185.671875 162.761719 Z M 185.671875 147.089844 " clip-rule="nonzero"/></clipPath></defs><g clip-path="url(#ae115eaea6)"><path fill="#ab7e4c" d="M 161.644531 221.9375 L 153.328125 221.9375 L 153.734375 267.664062 L 156.542969 267.664062 Z M 161.644531 221.9375 " fill-opacity="1" fill-rule="nonzero"/></g><path fill="#ab7e4c" d="M 146.324219 215.207031 L 228.308594 215.207031 L 228.308594 220.96875 L 146.324219 220.96875 Z M 146.324219 215.207031 " fill-opacity="1" fill-rule="nonzero"/><g clip-path="url(#f4842ae6ae)"><path fill="#ab7e4c" d="M 212.957031 221.9375 L 221.273438 221.9375 L 220.863281 267.664062 L 218.058594 267.664062 Z M 212.957031 221.9375 " fill-opacity="1" fill-rule="nonzero"/></g><g clip-path="url(#ad48a0e44a)"><path fill="#ab7e4c" d="M 120.378906 195.023438 C 118.539062 195.121094 120.820312 194.414062 116.148438 196.234375 C 112.5 197.660156 114.824219 225.8125 115.070312 232.882812 C 116.738281 232.007812 118.457031 231.714844 120.160156 231.632812 C 121.980469 231.601562 124.058594 232.257812 125.835938 233.210938 C 121.648438 226.570312 121.773438 223.246094 120.378906 195.023438 Z M 120.378906 195.023438 " fill-opacity="1" fill-rule="nonzero"/></g><path fill="#ab7e4c" d="M 116.472656 231.5 C 125.347656 228.769531 139.425781 228.90625 146.5 231.5 C 149.675781 232.664062 146.5 239.414062 146.5 239.414062 L 116.472656 239.414062 C 116.472656 239.414062 113.203125 232.507812 116.472656 231.5 Z M 116.472656 231.5 " fill-opacity="1" fill-rule="nonzero"/><g clip-path="url(#436993e1e7)"><path fill="#ab7e4c" d="M 136.804688 240.609375 L 143.488281 240.609375 L 143.160156 267.667969 L 140.90625 267.667969 Z M 136.804688 240.609375 " fill-opacity="1" fill-rule="nonzero"/></g><g clip-path="url(#94e1bae5e3)"><path fill="#ab7e4c" d="M 126.125 240.609375 L 119.445312 240.609375 L 119.773438 267.667969 L 122.027344 267.667969 Z M 126.125 240.609375 " fill-opacity="1" fill-rule="nonzero"/></g><g clip-path="url(#a6c4a2f4ff)"><path fill="#ab7e4c" d="M 254.628906 195.023438 C 256.472656 195.121094 254.191406 194.414062 258.863281 196.234375 C 262.511719 197.660156 260.1875 225.8125 259.941406 232.882812 C 258.273438 232.007812 256.550781 231.714844 254.847656 231.632812 C 253.03125 231.601562 250.953125 232.257812 249.175781 233.210938 C 253.363281 226.570312 253.238281 223.246094 254.628906 195.023438 Z M 254.628906 195.023438 " fill-opacity="1" fill-rule="nonzero"/></g><path fill="#ab7e4c" d="M 258.539062 231.5 C 249.660156 228.769531 235.585938 228.90625 228.511719 231.5 C 225.335938 232.664062 228.511719 239.414062 228.511719 239.414062 L 258.539062 239.414062 C 258.539062 239.414062 261.804688 232.507812 258.539062 231.5 Z M 258.539062 231.5 " fill-opacity="1" fill-rule="nonzero"/><g clip-path="url(#1ae1a8f320)"><path fill="#ab7e4c" d="M 238.207031 240.609375 L 231.523438 240.609375 L 231.851562 267.667969 L 234.105469 267.667969 Z M 238.207031 240.609375 " fill-opacity="1" fill-rule="nonzero"/></g><g clip-path="url(#9422238fdf)"><path fill="#ab7e4c" d="M 248.882812 240.609375 L 255.566406 240.609375 L 255.238281 267.667969 L 252.984375 267.667969 Z M 248.882812 240.609375 " fill-opacity="1" fill-rule="nonzero"/></g><g clip-path="url(#db348dc394)"><path fill="#ffffff" d="M 196.878906 139.253906 C 198.304688 140.625 199.425781 143.492188 198.53125 145.96875 C 196.742188 150.921875 186.628906 150.882812 184.21875 155.804688 C 183.351562 157.578125 183.28125 159.867188 184.535156 161.394531 C 185.476562 162.535156 186.953125 163.074219 188.386719 163.4375 C 189.820312 163.796875 191.269531 164.125 192.597656 164.773438 C 194.203125 165.550781 195.027344 166.8125 194.828125 168.277344 C 194.585938 170.039062 192.695312 171.152344 191.414062 172.382812 C 189.257812 174.453125 187.128906 177.074219 189.117188 180.621094 C 186.449219 178.609375 185.9375 175.226562 188.996094 171.292969 C 189.667969 170.433594 190.433594 169.691406 190.382812 168.746094 C 190.316406 167.542969 188.996094 166.953125 187.808594 166.746094 C 183.714844 166.027344 180.96875 164.761719 179.550781 162.367188 C 177.015625 158.082031 179.011719 153.046875 182.277344 150.871094 C 186.988281 147.730469 192.570312 148.710938 196.449219 145.867188 C 198.558594 144.320312 197.949219 141.210938 196.878906 139.253906 " fill-opacity="1" fill-rule="nonzero"/></g><g clip-path="url(#4778db6218)"><path fill="#ffffff" d="M 188.929688 169.519531 C 188.933594 169.90625 188.765625 170.386719 188.648438 170.632812 C 189.09375 170.15625 189.519531 169.550781 189.433594 168.894531 C 189.300781 167.871094 188.210938 167.648438 186.519531 167.3125 C 182.441406 166.496094 179.675781 165.328125 178.261719 162.9375 C 176.667969 160.25 176.859375 157.269531 178.027344 154.882812 C 176.382812 157.371094 176.140625 160.472656 177.867188 163.386719 C 179.28125 165.777344 182.101562 167.195312 186.199219 167.910156 C 187.382812 168.117188 188.90625 168.34375 188.929688 169.519531 " fill-opacity="1" fill-rule="nonzero"/></g><g clip-path="url(#34a9a9f595)"><path fill="#ffffff" d="M 198.625 147.96875 C 197.085938 152.226562 188.242188 152.265625 186.171875 156.5 C 185.425781 158.023438 185.511719 159.917969 186.589844 161.230469 C 187.222656 161.996094 188.132812 162.449219 189.089844 162.757812 C 188.355469 162.472656 187.675781 161.929688 187.179688 161.324219 C 186.152344 160.082031 186.210938 158.363281 186.917969 156.914062 C 188.882812 152.898438 197.160156 152.855469 198.617188 148.816406 C 198.828125 148.234375 198.875 147.703125 198.84375 147.105469 C 198.800781 147.394531 198.730469 147.683594 198.625 147.96875 " fill-opacity="1" fill-rule="nonzero"/></g><g fill="#382b16" fill-opacity="1"><g transform="translate(130.862314, 209.094549)"><g><path d="M 1.15625 -2.328125 C 0.757812 -2.804688 0.5625 -3.238281 0.5625 -3.625 C 0.5625 -4.007812 0.882812 -4.519531 1.53125 -5.15625 C 1.90625 -5.507812 2.300781 -5.6875 2.71875 -5.6875 C 3.144531 -5.6875 3.738281 -5.3125 4.5 -4.5625 C 4.707031 -4.3125 5.003906 -4.066406 5.390625 -3.828125 C 5.785156 -3.597656 6.148438 -3.484375 6.484375 -3.484375 C 7.878906 -3.484375 8.578125 -4.054688 8.578125 -5.203125 C 8.578125 -5.546875 8.382812 -5.832031 8 -6.0625 C 7.625 -6.300781 7.148438 -6.472656 6.578125 -6.578125 C 6.003906 -6.679688 5.382812 -6.847656 4.71875 -7.078125 C 4.0625 -7.316406 3.445312 -7.59375 2.875 -7.90625 C 2.300781 -8.21875 1.820312 -8.71875 1.4375 -9.40625 C 1.050781 -10.09375 0.859375 -10.921875 0.859375 -11.890625 C 0.859375 -13.210938 1.347656 -14.363281 2.328125 -15.34375 C 3.316406 -16.332031 4.664062 -16.828125 6.375 -16.828125 C 7.28125 -16.828125 8.101562 -16.707031 8.84375 -16.46875 C 9.59375 -16.238281 10.109375 -16.003906 10.390625 -15.765625 L 10.953125 -15.34375 C 11.421875 -14.90625 11.65625 -14.535156 11.65625 -14.234375 C 11.65625 -13.929688 11.472656 -13.515625 11.109375 -12.984375 C 10.597656 -12.234375 10.070312 -11.859375 9.53125 -11.859375 C 9.21875 -11.859375 8.828125 -12.007812 8.359375 -12.3125 C 8.316406 -12.34375 8.226562 -12.414062 8.09375 -12.53125 C 7.96875 -12.65625 7.851562 -12.753906 7.75 -12.828125 C 7.4375 -13.023438 7.035156 -13.125 6.546875 -13.125 C 6.054688 -13.125 5.644531 -13.003906 5.3125 -12.765625 C 4.988281 -12.535156 4.828125 -12.210938 4.828125 -11.796875 C 4.828125 -11.390625 5.019531 -11.054688 5.40625 -10.796875 C 5.789062 -10.546875 6.269531 -10.375 6.84375 -10.28125 C 7.414062 -10.1875 8.039062 -10.046875 8.71875 -9.859375 C 9.394531 -9.671875 10.019531 -9.441406 10.59375 -9.171875 C 11.164062 -8.898438 11.644531 -8.425781 12.03125 -7.75 C 12.414062 -7.082031 12.609375 -6.257812 12.609375 -5.28125 C 12.609375 -4.300781 12.410156 -3.4375 12.015625 -2.6875 C 11.628906 -1.945312 11.117188 -1.375 10.484375 -0.96875 C 9.265625 -0.175781 7.960938 0.21875 6.578125 0.21875 C 5.867188 0.21875 5.195312 0.132812 4.5625 -0.03125 C 3.925781 -0.207031 3.414062 -0.421875 3.03125 -0.671875 C 2.226562 -1.160156 1.671875 -1.628906 1.359375 -2.078125 Z M 1.15625 -2.328125 "/></g></g></g><g fill="#382b16" fill-opacity="1"><g transform="translate(144.037091, 209.094549)"><g><path d="M 11.125 -15.953125 C 11.25 -16.179688 11.453125 -16.335938 11.734375 -16.421875 C 12.023438 -16.515625 12.390625 -16.5625 12.828125 -16.5625 C 13.265625 -16.5625 13.609375 -16.519531 13.859375 -16.4375 C 14.117188 -16.363281 14.316406 -16.273438 14.453125 -16.171875 C 14.585938 -16.066406 14.695312 -15.914062 14.78125 -15.71875 C 14.851562 -15.46875 14.890625 -15.078125 14.890625 -14.546875 L 14.890625 -2.015625 C 14.890625 -1.660156 14.878906 -1.394531 14.859375 -1.21875 C 14.835938 -1.050781 14.765625 -0.851562 14.640625 -0.625 C 14.429688 -0.21875 13.84375 -0.015625 12.875 -0.015625 C 11.820312 -0.015625 11.207031 -0.296875 11.03125 -0.859375 C 10.9375 -1.117188 10.890625 -1.507812 10.890625 -2.03125 L 10.890625 -6.625 L 4.90625 -6.625 L 4.90625 -2.015625 C 4.90625 -1.660156 4.890625 -1.394531 4.859375 -1.21875 C 4.835938 -1.050781 4.769531 -0.851562 4.65625 -0.625 C 4.445312 -0.21875 3.859375 -0.015625 2.890625 -0.015625 C 1.835938 -0.015625 1.222656 -0.296875 1.046875 -0.859375 C 0.953125 -1.117188 0.90625 -1.507812 0.90625 -2.03125 L 0.90625 -14.578125 C 0.90625 -14.921875 0.914062 -15.175781 0.9375 -15.34375 C 0.957031 -15.519531 1.03125 -15.722656 1.15625 -15.953125 C 1.363281 -16.359375 1.953125 -16.5625 2.921875 -16.5625 C 3.972656 -16.5625 4.597656 -16.28125 4.796875 -15.71875 C 4.867188 -15.46875 4.90625 -15.078125 4.90625 -14.546875 L 4.90625 -9.9375 L 10.890625 -9.9375 L 10.890625 -14.578125 C 10.890625 -14.921875 10.898438 -15.175781 10.921875 -15.34375 C 10.941406 -15.519531 11.007812 -15.722656 11.125 -15.953125 Z M 11.125 -15.953125 "/></g></g></g><g fill="#382b16" fill-opacity="1"><g transform="translate(159.833262, 209.094549)"><g><path d="M 8.671875 -16.765625 C 10.898438 -16.765625 12.832031 -15.957031 14.46875 -14.34375 C 16.113281 -12.726562 16.9375 -10.726562 16.9375 -8.34375 C 16.9375 -5.957031 16.15625 -3.925781 14.59375 -2.25 C 13.03125 -0.570312 11.101562 0.265625 8.8125 0.265625 C 6.519531 0.265625 4.570312 -0.5625 2.96875 -2.21875 C 1.363281 -3.875 0.5625 -5.847656 0.5625 -8.140625 C 0.5625 -9.390625 0.785156 -10.554688 1.234375 -11.640625 C 1.691406 -12.734375 2.296875 -13.648438 3.046875 -14.390625 C 3.804688 -15.128906 4.671875 -15.707031 5.640625 -16.125 C 6.617188 -16.550781 7.628906 -16.765625 8.671875 -16.765625 Z M 4.5625 -8.234375 C 4.5625 -6.898438 4.992188 -5.816406 5.859375 -4.984375 C 6.722656 -4.148438 7.691406 -3.734375 8.765625 -3.734375 C 9.835938 -3.734375 10.800781 -4.140625 11.65625 -4.953125 C 12.519531 -5.765625 12.953125 -6.851562 12.953125 -8.21875 C 12.953125 -9.59375 12.515625 -10.691406 11.640625 -11.515625 C 10.773438 -12.347656 9.804688 -12.765625 8.734375 -12.765625 C 7.671875 -12.765625 6.707031 -12.34375 5.84375 -11.5 C 4.988281 -10.664062 4.5625 -9.578125 4.5625 -8.234375 Z M 4.5625 -8.234375 "/></g></g></g><g fill="#382b16" fill-opacity="1"><g transform="translate(177.346901, 209.094549)"><g><path d="M 13.125 -13.21875 C 13.519531 -12.414062 13.71875 -11.523438 13.71875 -10.546875 C 13.71875 -9.566406 13.519531 -8.679688 13.125 -7.890625 C 12.738281 -7.097656 12.234375 -6.472656 11.609375 -6.015625 C 10.359375 -5.046875 9.066406 -4.5625 7.734375 -4.5625 L 4.90625 -4.5625 L 4.90625 -2.015625 C 4.90625 -1.660156 4.890625 -1.394531 4.859375 -1.21875 C 4.835938 -1.050781 4.769531 -0.851562 4.65625 -0.625 C 4.445312 -0.21875 3.859375 -0.015625 2.890625 -0.015625 C 1.835938 -0.015625 1.222656 -0.296875 1.046875 -0.859375 C 0.953125 -1.117188 0.90625 -1.507812 0.90625 -2.03125 L 0.90625 -14.578125 C 0.90625 -14.921875 0.914062 -15.175781 0.9375 -15.34375 C 0.957031 -15.519531 1.03125 -15.722656 1.15625 -15.953125 C 1.363281 -16.359375 1.953125 -16.5625 2.921875 -16.5625 L 7.75 -16.5625 C 9.070312 -16.5625 10.359375 -16.078125 11.609375 -15.109375 C 12.234375 -14.648438 12.738281 -14.019531 13.125 -13.21875 Z M 7.75 -8.5625 C 8.195312 -8.5625 8.640625 -8.726562 9.078125 -9.0625 C 9.515625 -9.394531 9.734375 -9.890625 9.734375 -10.546875 C 9.734375 -11.210938 9.515625 -11.710938 9.078125 -12.046875 C 8.640625 -12.390625 8.191406 -12.5625 7.734375 -12.5625 L 4.90625 -12.5625 L 4.90625 -8.5625 Z M 7.75 -8.5625 "/></g></g></g><g fill="#382b16" fill-opacity="1"><g transform="translate(191.628996, 209.094549)"><g><path d="M 13.125 -13.21875 C 13.519531 -12.414062 13.71875 -11.523438 13.71875 -10.546875 C 13.71875 -9.566406 13.519531 -8.679688 13.125 -7.890625 C 12.738281 -7.097656 12.234375 -6.472656 11.609375 -6.015625 C 10.359375 -5.046875 9.066406 -4.5625 7.734375 -4.5625 L 4.90625 -4.5625 L 4.90625 -2.015625 C 4.90625 -1.660156 4.890625 -1.394531 4.859375 -1.21875 C 4.835938 -1.050781 4.769531 -0.851562 4.65625 -0.625 C 4.445312 -0.21875 3.859375 -0.015625 2.890625 -0.015625 C 1.835938 -0.015625 1.222656 -0.296875 1.046875 -0.859375 C 0.953125 -1.117188 0.90625 -1.507812 0.90625 -2.03125 L 0.90625 -14.578125 C 0.90625 -14.921875 0.914062 -15.175781 0.9375 -15.34375 C 0.957031 -15.519531 1.03125 -15.722656 1.15625 -15.953125 C 1.363281 -16.359375 1.953125 -16.5625 2.921875 -16.5625 L 7.75 -16.5625 C 9.070312 -16.5625 10.359375 -16.078125 11.609375 -15.109375 C 12.234375 -14.648438 12.738281 -14.019531 13.125 -13.21875 Z M 7.75 -8.5625 C 8.195312 -8.5625 8.640625 -8.726562 9.078125 -9.0625 C 9.515625 -9.394531 9.734375 -9.890625 9.734375 -10.546875 C 9.734375 -11.210938 9.515625 -11.710938 9.078125 -12.046875 C 8.640625 -12.390625 8.191406 -12.5625 7.734375 -12.5625 L 4.90625 -12.5625 L 4.90625 -8.5625 Z M 7.75 -8.5625 "/></g></g></g><g fill="#382b16" fill-opacity="1"><g transform="translate(205.91109, 209.094549)"><g><path d="M 0.90625 -14.578125 C 0.90625 -14.921875 0.914062 -15.175781 0.9375 -15.34375 C 0.957031 -15.519531 1.03125 -15.722656 1.15625 -15.953125 C 1.363281 -16.359375 1.953125 -16.5625 2.921875 -16.5625 C 3.972656 -16.5625 4.597656 -16.28125 4.796875 -15.71875 C 4.867188 -15.46875 4.90625 -15.078125 4.90625 -14.546875 L 4.90625 -1.984375 C 4.90625 -1.628906 4.890625 -1.367188 4.859375 -1.203125 C 4.835938 -1.035156 4.769531 -0.835938 4.65625 -0.609375 C 4.445312 -0.203125 3.859375 0 2.890625 0 C 1.835938 0 1.222656 -0.285156 1.046875 -0.859375 C 0.953125 -1.097656 0.90625 -1.484375 0.90625 -2.015625 Z M 0.90625 -14.578125 "/></g></g></g><g fill="#382b16" fill-opacity="1"><g transform="translate(211.718843, 209.094549)"><g><path d="M 11.59375 -15.875 C 11.738281 -16.132812 11.953125 -16.304688 12.234375 -16.390625 C 12.523438 -16.484375 12.882812 -16.53125 13.3125 -16.53125 C 13.75 -16.53125 14.097656 -16.492188 14.359375 -16.421875 C 14.617188 -16.347656 14.8125 -16.257812 14.9375 -16.15625 C 15.070312 -16.050781 15.171875 -15.894531 15.234375 -15.6875 C 15.316406 -15.4375 15.359375 -15.050781 15.359375 -14.53125 L 15.359375 -1.984375 C 15.359375 -1.628906 15.347656 -1.367188 15.328125 -1.203125 C 15.304688 -1.035156 15.234375 -0.835938 15.109375 -0.609375 C 14.898438 -0.203125 14.316406 0 13.359375 0 C 12.765625 0 12.351562 -0.0390625 12.125 -0.125 C 11.90625 -0.21875 11.71875 -0.363281 11.5625 -0.5625 C 8.175781 -5.082031 5.945312 -8.035156 4.875 -9.421875 L 4.875 -1.984375 C 4.875 -1.628906 4.863281 -1.367188 4.84375 -1.203125 C 4.820312 -1.035156 4.75 -0.835938 4.625 -0.609375 C 4.414062 -0.203125 3.832031 0 2.875 0 C 1.9375 0 1.363281 -0.203125 1.15625 -0.609375 C 1.03125 -0.835938 0.957031 -1.039062 0.9375 -1.21875 C 0.914062 -1.394531 0.90625 -1.660156 0.90625 -2.015625 L 0.90625 -14.625 C 0.90625 -15.195312 0.972656 -15.613281 1.109375 -15.875 C 1.253906 -16.132812 1.46875 -16.304688 1.75 -16.390625 C 2.039062 -16.484375 2.410156 -16.53125 2.859375 -16.53125 C 3.316406 -16.53125 3.675781 -16.488281 3.9375 -16.40625 C 4.207031 -16.332031 4.394531 -16.238281 4.5 -16.125 C 4.5625 -16.082031 4.734375 -15.890625 5.015625 -15.546875 C 8.191406 -11.222656 10.316406 -8.367188 11.390625 -6.984375 L 11.390625 -14.625 C 11.390625 -15.195312 11.457031 -15.613281 11.59375 -15.875 Z M 11.59375 -15.875 "/></g></g></g><g fill="#382b16" fill-opacity="1"><g transform="translate(227.989578, 209.094549)"><g><path d="M 9.53125 -9.984375 L 13.515625 -9.984375 C 14.328125 -9.953125 14.820312 -9.742188 15 -9.359375 C 15.15625 -9.066406 15.234375 -8.644531 15.234375 -8.09375 L 15.234375 -3.125 C 15.234375 -2.632812 15.019531 -2.171875 14.59375 -1.734375 C 13.332031 -0.429688 11.4375 0.21875 8.90625 0.21875 C 6.65625 0.21875 4.703125 -0.625 3.046875 -2.3125 C 1.390625 -4.007812 0.5625 -6.054688 0.5625 -8.453125 C 0.5625 -10.847656 1.40625 -12.847656 3.09375 -14.453125 C 4.78125 -16.054688 6.769531 -16.859375 9.0625 -16.859375 C 10.832031 -16.859375 12.507812 -16.269531 14.09375 -15.09375 C 14.5 -14.789062 14.703125 -14.453125 14.703125 -14.078125 C 14.703125 -13.710938 14.53125 -13.289062 14.1875 -12.8125 C 13.601562 -12.007812 13.066406 -11.609375 12.578125 -11.609375 C 12.296875 -11.609375 11.835938 -11.816406 11.203125 -12.234375 C 10.566406 -12.648438 9.816406 -12.859375 8.953125 -12.859375 C 7.804688 -12.859375 6.785156 -12.453125 5.890625 -11.640625 C 5.003906 -10.835938 4.5625 -9.785156 4.5625 -8.484375 C 4.5625 -7.179688 5.015625 -6.070312 5.921875 -5.15625 C 6.828125 -4.25 7.851562 -3.796875 9 -3.796875 C 9.820312 -3.796875 10.566406 -3.929688 11.234375 -4.203125 L 11.234375 -6.671875 L 9.4375 -6.671875 C 8.976562 -6.671875 8.648438 -6.726562 8.453125 -6.84375 C 8.253906 -6.96875 8.125 -7.144531 8.0625 -7.375 C 8 -7.613281 7.96875 -7.929688 7.96875 -8.328125 C 7.96875 -8.722656 8 -9.039062 8.0625 -9.28125 C 8.132812 -9.519531 8.265625 -9.6875 8.453125 -9.78125 C 8.722656 -9.914062 9.082031 -9.984375 9.53125 -9.984375 Z M 9.53125 -9.984375 "/></g></g></g><g fill="#382b16" fill-opacity="1"><g transform="translate(167.715066, 235.493569)"><g><path d="M 3.09375 -2.109375 L 6.96875 -2.109375 C 7.28125 -2.109375 7.503906 -2.070312 7.640625 -2 C 7.785156 -1.925781 7.882812 -1.8125 7.9375 -1.65625 C 7.988281 -1.507812 8.015625 -1.3125 8.015625 -1.0625 C 8.015625 -0.8125 7.988281 -0.609375 7.9375 -0.453125 C 7.882812 -0.304688 7.800781 -0.203125 7.6875 -0.140625 C 7.507812 -0.046875 7.265625 0 6.953125 0 L 1.828125 0 C 1.160156 0 0.769531 -0.179688 0.65625 -0.546875 C 0.59375 -0.691406 0.5625 -0.929688 0.5625 -1.265625 L 0.5625 -9.1875 C 0.5625 -9.40625 0.566406 -9.566406 0.578125 -9.671875 C 0.597656 -9.785156 0.648438 -9.914062 0.734375 -10.0625 C 0.859375 -10.3125 1.226562 -10.4375 1.84375 -10.4375 C 2.5 -10.4375 2.890625 -10.265625 3.015625 -9.921875 C 3.066406 -9.753906 3.09375 -9.503906 3.09375 -9.171875 Z M 3.09375 -2.109375 "/></g></g></g><g fill="#382b16" fill-opacity="1"><g transform="translate(176.079838, 235.493569)"><g><path d="M 6.59375 -9.703125 L 10.4375 -1.75 C 10.601562 -1.425781 10.6875 -1.1875 10.6875 -1.03125 C 10.6875 -0.6875 10.410156 -0.375 9.859375 -0.09375 C 9.535156 0.0625 9.28125 0.140625 9.09375 0.140625 C 8.914062 0.140625 8.765625 0.0976562 8.640625 0.015625 C 8.523438 -0.0664062 8.441406 -0.15625 8.390625 -0.25 C 8.335938 -0.351562 8.265625 -0.5 8.171875 -0.6875 L 7.421875 -2.21875 L 3.484375 -2.21875 L 2.734375 -0.6875 C 2.640625 -0.5 2.566406 -0.359375 2.515625 -0.265625 C 2.460938 -0.179688 2.375 -0.09375 2.25 0 C 2.132812 0.0820312 1.984375 0.125 1.796875 0.125 C 1.617188 0.125 1.367188 0.046875 1.046875 -0.109375 C 0.492188 -0.378906 0.21875 -0.6875 0.21875 -1.03125 C 0.21875 -1.1875 0.296875 -1.425781 0.453125 -1.75 L 4.296875 -9.71875 C 4.398438 -9.9375 4.554688 -10.109375 4.765625 -10.234375 C 4.984375 -10.367188 5.210938 -10.4375 5.453125 -10.4375 C 5.972656 -10.4375 6.351562 -10.191406 6.59375 -9.703125 Z M 5.4375 -6.28125 L 4.5 -4.328125 L 6.390625 -4.328125 Z M 5.4375 -6.28125 "/></g></g></g><g fill="#382b16" fill-opacity="1"><g transform="translate(186.981113, 235.493569)"><g><path d="M 7.3125 -10.015625 C 7.40625 -10.179688 7.539062 -10.289062 7.71875 -10.34375 C 7.90625 -10.40625 8.132812 -10.4375 8.40625 -10.4375 C 8.675781 -10.4375 8.894531 -10.410156 9.0625 -10.359375 C 9.226562 -10.304688 9.347656 -10.25 9.421875 -10.1875 C 9.503906 -10.125 9.566406 -10.023438 9.609375 -9.890625 C 9.660156 -9.734375 9.6875 -9.488281 9.6875 -9.15625 L 9.6875 -1.25 C 9.6875 -1.019531 9.675781 -0.851562 9.65625 -0.75 C 9.644531 -0.644531 9.601562 -0.523438 9.53125 -0.390625 C 9.394531 -0.128906 9.023438 0 8.421875 0 C 8.046875 0 7.785156 -0.0234375 7.640625 -0.078125 C 7.503906 -0.140625 7.390625 -0.234375 7.296875 -0.359375 C 5.160156 -3.203125 3.753906 -5.0625 3.078125 -5.9375 L 3.078125 -1.25 C 3.078125 -1.019531 3.066406 -0.851562 3.046875 -0.75 C 3.035156 -0.644531 2.992188 -0.523438 2.921875 -0.390625 C 2.785156 -0.128906 2.414062 0 1.8125 0 C 1.21875 0 0.859375 -0.128906 0.734375 -0.390625 C 0.648438 -0.523438 0.597656 -0.648438 0.578125 -0.765625 C 0.566406 -0.878906 0.5625 -1.046875 0.5625 -1.265625 L 0.5625 -9.21875 C 0.5625 -9.582031 0.609375 -9.847656 0.703125 -10.015625 C 0.796875 -10.179688 0.929688 -10.289062 1.109375 -10.34375 C 1.285156 -10.40625 1.515625 -10.4375 1.796875 -10.4375 C 2.085938 -10.4375 2.316406 -10.410156 2.484375 -10.359375 C 2.648438 -10.304688 2.765625 -10.242188 2.828125 -10.171875 C 2.867188 -10.140625 2.976562 -10.015625 3.15625 -9.796875 C 5.164062 -7.078125 6.507812 -5.28125 7.1875 -4.40625 L 7.1875 -9.21875 C 7.1875 -9.582031 7.226562 -9.847656 7.3125 -10.015625 Z M 7.3125 -10.015625 "/></g></g></g><g fill="#382b16" fill-opacity="1"><g transform="translate(197.241141, 235.493569)"><g><path d="M 1.84375 -10.453125 L 4.46875 -10.4375 C 5.851562 -10.4375 7.066406 -9.941406 8.109375 -8.953125 C 9.148438 -7.960938 9.671875 -6.742188 9.671875 -5.296875 C 9.671875 -3.847656 9.160156 -2.601562 8.140625 -1.5625 C 7.117188 -0.53125 5.882812 -0.015625 4.4375 -0.015625 L 1.828125 -0.015625 C 1.242188 -0.015625 0.878906 -0.132812 0.734375 -0.375 C 0.617188 -0.570312 0.5625 -0.875 0.5625 -1.28125 L 0.5625 -9.203125 C 0.5625 -9.429688 0.566406 -9.597656 0.578125 -9.703125 C 0.597656 -9.804688 0.648438 -9.929688 0.734375 -10.078125 C 0.859375 -10.328125 1.226562 -10.453125 1.84375 -10.453125 Z M 4.46875 -2.53125 C 5.15625 -2.53125 5.773438 -2.785156 6.328125 -3.296875 C 6.878906 -3.804688 7.15625 -4.445312 7.15625 -5.21875 C 7.15625 -5.988281 6.882812 -6.628906 6.34375 -7.140625 C 5.8125 -7.660156 5.179688 -7.921875 4.453125 -7.921875 L 3.09375 -7.921875 L 3.09375 -2.53125 Z M 4.46875 -2.53125 "/></g></g></g></svg>